<?xml version="1.0" encoding="UTF-8" standalone="no"?>
<svg
   xmlns:dc="http://purl.org/dc/elements/1.1/"
   xmlns:cc="http://creativecommons.org/ns#"
   xmlns:rdf="http://www.w3.org/1999/02/22-rdf-syntax-ns#"
   xmlns:svg="http://www.w3.org/2000/svg"
   xmlns="http://www.w3.org/2000/svg"
   xmlns:sodipodi="http://sodipodi.sourceforge.net/DTD/sodipodi-0.dtd"
   xmlns:inkscape="http://www.inkscape.org/namespaces/inkscape"
   id="Layer_1"
   data-name="Layer 1"
   width="22"
   height="22"
   viewBox="0 0 22 22"
   version="1.1"
   sodipodi:docname="distributor-logo.svg"
   inkscape:version="0.92+devel unknown">
  <metadata
     id="metadata25">
    <rdf:RDF>
      <cc:Work
         rdf:about="">
        <dc:format>image/svg+xml</dc:format>
        <dc:type
           rdf:resource="http://purl.org/dc/dcmitype/StillImage" />
        <dc:title>Pop_icon</dc:title>
      </cc:Work>
    </rdf:RDF>
  </metadata>
  <defs
     id="defs23" />
  <sodipodi:namedview
     pagecolor="#ffffff"
     bordercolor="#666666"
     inkscape:document-rotation="0"
     borderopacity="1"
     objecttolerance="10"
     gridtolerance="10"
     guidetolerance="10"
     inkscape:pageopacity="0"
     inkscape:pageshadow="2"
     inkscape:window-width="2560"
     inkscape:window-height="1376"
     id="namedview21"
     showgrid="true"
     fit-margin-top="5"
     fit-margin-left="5"
     fit-margin-right="5"
     fit-margin-bottom="5"
     inkscape:zoom="22.627417"
     inkscape:cx="-7.739387"
     inkscape:cy="12.550941"
     inkscape:current-layer="g908"
     inkscape:window-x="0"
     inkscape:window-y="30"
     inkscape:window-maximized="1">
    <inkscape:grid
       type="xygrid"
       id="grid832"
       originx="-92.999999"
       originy="-93.000005" />
  </sodipodi:namedview>
  <title
     id="title2">Pop_icon</title>
  <g
     id="g18"
     transform="matrix(0.17618041,0,0,0.17618041,-61.666667,-83.176181)"
     style="stroke-width:3.78399992">
    <g
       id="g918"
       transform="matrix(0.12,0,0,0.12,355.696,477.664)">
      <circle
         cx="473"
         cy="474"
         r="473"
         style="fill:#48b9c7;stroke-width:3.78399992"
         id="circle4" />
      <g
         id="g908">
        <rect
           ry="23.65"
           id="rect6"
           style="fill:#ffffff;stroke-width:3.78399992"
           rx="23.65"
           height="47.299988"
           width="520.29999"
           y="757.80023"
           x="236.50005" />
        <g
           id="g900"
           transform="matrix(1.05,0,0,1.05,-42.606213,-11.549768)">
          <path
             inkscape:connector-curvature="0"
             id="path10"
             style="fill:#ffffff;stroke-width:14.31865597"
             d="m 512.96432,349.32144 c -24,51 -64,92 -120,112 l 48,125 c 9,23 17,47 10,69 -7,22 -39,29 -62,5 -44,-47 -192,-343 -203,-365 -11,-22 -23,-40 -23,-62 1,-33 52,-67 77,-84 25,-17 74,-40 117,-41 43,-1 61,9 86,25 38,25 65,64 75,109 10,45 7,80 -5,105 m -113,-54 c -9,-31 -28,-61 -53,-81 -5,-4 -11,-9 -18,-11 -46,-15 -26,62 -19,82 7,20 26,62 47,83 5,5 10,9 16,10 6,1 18,-5 23,-13 5,-8 6,-14 6,-22 a 128,128 0 0 0 -2,-48 z" />
          <g
             id="g894"
             transform="translate(19.196429,-20.476191)">
            <path
               inkscape:connector-curvature="0"
               id="path12"
               style="fill:#ffffff;stroke-width:4.59947538"
               d="m 631.76957,666.49935 c -2.43102,10.93956 -8.50855,20.66361 -18.2326,26.74114 -9.72405,6.07753 -32.81867,6.07753 -46.18924,-4.86202 -13.37056,-10.93956 -15.80158,-29.17215 -12.15506,-43.75823 3.64652,-14.58607 15.80158,-30.38766 32.81867,-35.24968 35.24968,-10.93956 51.05126,27.95664 43.75823,57.12879 z" />
            <path
               inkscape:connector-curvature="0"
               id="path14"
               style="fill:#ffffff;stroke-width:3.78399992"
               d="m 607,573 c -18,-7 -12,-103 5,-220 5,-32 13,-48 22,-56 9,-8 36,-12 52,-9 a 90,90 0 0 1 49,24 c 12,11 13,23 9,38 -4,15 -18,47 -29,70 l -28,53 c -54,96 -65,106 -80,100 z" />
          </g>
        </g>
      </g>
    </g>
  </g>
</svg>
