<?xml version="1.0" encoding="UTF-8" standalone="no"?>
<!-- Created with Inkscape (http://www.inkscape.org/) -->

<svg
   xmlns:dc="http://purl.org/dc/elements/1.1/"
   xmlns:cc="http://creativecommons.org/ns#"
   xmlns:rdf="http://www.w3.org/1999/02/22-rdf-syntax-ns#"
   xmlns:svg="http://www.w3.org/2000/svg"
   xmlns="http://www.w3.org/2000/svg"
   xmlns:sodipodi="http://sodipodi.sourceforge.net/DTD/sodipodi-0.dtd"
   xmlns:inkscape="http://www.inkscape.org/namespaces/inkscape"
   width="1000"
   height="1440"
   viewBox="0 0 264.58333 381.00001"
   version="1.1"
   id="svg8"
   sodipodi:docname="boot-encrypted-wait.svg"
   inkscape:version="0.92+devel unknown">
  <defs
     id="defs2" />
  <sodipodi:namedview
     id="base"
     pagecolor="#574f4a"
     bordercolor="#666666"
     borderopacity="1.0"
     inkscape:pageopacity="0"
     inkscape:pageshadow="2"
     inkscape:zoom="2.0000001"
     inkscape:cx="350.09169"
     inkscape:cy="790.05882"
     inkscape:document-units="px"
     inkscape:current-layer="g952"
     inkscape:document-rotation="0"
     showgrid="true"
     units="px"
     showguides="false"
     inkscape:guide-bbox="true"
     inkscape:snap-smooth-nodes="true"
     inkscape:snap-object-midpoints="true"
     inkscape:window-width="2560"
     inkscape:window-height="1376"
     inkscape:window-x="0"
     inkscape:window-y="31"
     inkscape:window-maximized="1">
    <inkscape:grid
       type="xygrid"
       id="grid836" />
    <sodipodi:guide
       position="72.495834,255.05834"
       orientation="-0.70710678,0.70710678"
       id="guide873"
       inkscape:locked="false"
       inkscape:label=""
       inkscape:color="rgb(0,0,255)" />
  </sodipodi:namedview>
  <metadata
     id="metadata5">
    <rdf:RDF>
      <cc:Work
         rdf:about="">
        <dc:format>image/svg+xml</dc:format>
        <dc:type
           rdf:resource="http://purl.org/dc/dcmitype/StillImage" />
        <dc:title />
      </cc:Work>
    </rdf:RDF>
  </metadata>
  <g
     inkscape:label="Layer 1"
     inkscape:groupmode="layer"
     id="layer1"
     transform="translate(0,84.000008)">
    <rect
       style="opacity:1;fill:#d35120;fill-opacity:1;stroke:none;stroke-width:0.79374999;stroke-miterlimit:4;stroke-dasharray:none;stroke-opacity:1;paint-order:markers fill stroke"
       id="rect1127"
       width="207.43332"
       height="133.65239"
       x="28.574999"
       y="39.673798"
       rx="1.3229166"
       ry="1.3229166"
       inkscape:export-xdpi="96"
       inkscape:export-ydpi="96" />
    <rect
       style="opacity:1;fill:#206bd3;fill-opacity:1;stroke:none;stroke-width:0.79375005;stroke-miterlimit:4;stroke-dasharray:none;stroke-opacity:1;paint-order:markers fill stroke"
       id="rect1215"
       width="34.932232"
       height="127"
       x="74.629562"
       y="43.000004"
       rx="1.3229167"
       ry="1.3229169"
       inkscape:export-xdpi="96"
       inkscape:export-ydpi="96" />
    <rect
       style="opacity:1;fill:#33b90b;fill-opacity:1;stroke:none;stroke-width:0.79374999;stroke-miterlimit:4;stroke-dasharray:none;stroke-opacity:1;paint-order:markers fill stroke"
       id="rect1129"
       width="67.709023"
       height="127"
       x="109.5618"
       y="43"
       rx="1.3229166"
       ry="1.3229167"
       inkscape:export-xdpi="96"
       inkscape:export-ydpi="96" />
    <rect
       style="opacity:1;fill:#8405d4;fill-opacity:1;stroke:none;stroke-width:0.79375017;stroke-opacity:1;paint-order:markers fill stroke"
       id="rect846"
       width="12.065544"
       height="127"
       x="-121.65569"
       y="-169.99998"
       rx="1.322917"
       ry="1.3229169"
       transform="scale(-1)" />
    <g
       style="stroke-width:0.66666669"
       transform="matrix(0.396875,0,0,0.396875,74.93434,124.41376)"
       id="g1095"
       inkscape:export-xdpi="96"
       inkscape:export-ydpi="96">
      <path
         sodipodi:nodetypes="csssscssc"
         id="path976"
         d="m 9.8557341,101.52961 v 2 c 0,2.216 2.4507009,4.67893 4.6666669,4.66667 L 50,108 c 2.215966,-0.0123 4,-1.784 4,-4 v -2 c 0,2.216 -1.784034,3.98774 -4,4 l -35.477599,0.19628 c -2.215966,0.0123 -4.6666669,-2.45067 -4.6666669,-4.66667 z"
         style="opacity:0.2;stroke-width:0.66666669"
         inkscape:connector-curvature="0" />
      <rect
         id="rect978"
         x="-106.86295"
         y="-53.855736"
         width="55.999981"
         height="44"
         transform="matrix(0,-1,-1,0,0,0)"
         rx="4.666636"
         ry="4.6666675"
         style="fill:#999999;fill-opacity:1;stroke-width:0.66666669" />
      <path
         id="path980"
         d="m 31.855736,58.862942 c -7.732,0 -14,6.268 -14,14 v 14 h 14 c 7.732,0 14,-6.268 14,-14 0,-7.732 -6.268,-14 -14,-14 z m 0,6 a 8,8 0 0 1 8,8 8,8 0 0 1 -8,8 8,8 0 0 1 -8,-8 8,8 0 0 1 8,-8 z"
         style="opacity:0.3;stroke-width:0.66666669;enable-background:new"
         inkscape:connector-curvature="0" />
      <path
         sodipodi:nodetypes="sscsscsss"
         id="path982"
         d="m 14.522401,50.862941 c -2.666667,0 -4.6666669,2 -4.6666669,4.666667 v 1 c 0,-2.216 2.4506669,-4.666667 4.6666669,-4.666667 h 34.666667 c 2.216,0 4.666667,2.117334 4.666667,4.333334 v -1 c 0,-2.333334 -2,-4.333334 -4.666667,-4.333334 z"
         style="opacity:0.1;fill:#ffffff;stroke-width:0.66666669"
         inkscape:connector-curvature="0" />
      <path
         sodipodi:nodetypes="ccccsccc"
         id="path984"
         d="m 63.856695,92.863282 c -0.450467,8.487548 -7.501473,15.322628 -16.00096,15.332998 -8.389387,-2.5e-4 -15.395965,-6.96572 -16,-15.333338 -0.0215,0.282246 -0.0355,0.565012 -0.042,0.848 0,8.836558 7.205444,16.485338 16.042,16.485338 8.836556,0 16.04296,-7.34444 16.04296,-16.180998 -4.69e-4,-0.384505 -0.0148,-0.768867 -0.04296,-1.15234 z"
         style="opacity:0.2;stroke-width:0.66666669;enable-background:new"
         inkscape:connector-curvature="0" />
      <ellipse
         ry="16.000002"
         rx="16"
         id="circle986"
         cy="92.52961"
         cx="47.855736"
         style="fill:#f15d22;fill-opacity:1;fill-rule:evenodd;stroke-width:0.66666663;enable-background:new" />
      <g
         style="fill:#ffffff;fill-opacity:1;stroke-width:0.66666651;enable-background:new"
         id="g1029"
         transform="translate(39.99739,84.99664)">
        <path
           sodipodi:nodetypes="sscsssssssscssssccss"
           d="m 7.8583448,0.53296868 c -2.216,0 -4.0000001,1.75912002 -4.0000001,4.00000002 V 6.5329688 H 3.1916781 c -0.554,0 -1.3333334,0.7793333 -1.3333334,1.3333333 v 5.3333329 c 0,0.554 0.7793334,1.333334 1.3333334,1.333334 h 9.3333339 c 0.554,0 1.333333,-0.779334 1.333333,-1.333334 V 7.8663021 c 0,-0.554 -0.779333,-1.3333333 -1.333333,-1.3333333 H 11.858345 V 4.5329687 c 0,-2.24 -1.784,-4.00000002 -4.0000002,-4.00000002 z m 0,2.00000002 c 1.108,0 2.0000001,0.892 2.0000001,2 V 6.5329688 H 5.8583448 V 4.5329687 c 0,-1.108 0.892,-2 2,-2 z"
           style="fill:#ffffff;fill-opacity:1;stroke-width:0.66666651"
           id="path1015"
           inkscape:connector-curvature="0" />
      </g>
    </g>
    <g
       style="stroke-width:0.5"
       id="g1114"
       transform="matrix(0.52916666,0,0,0.52916666,70.039548,93.126785)"
       inkscape:export-xdpi="96"
       inkscape:export-ydpi="96">
      <path
         sodipodi:nodetypes="cc"
         style="fill:none;fill-rule:evenodd;stroke:#faa41a;stroke-width:1.5;stroke-linecap:butt;stroke-linejoin:miter;stroke-miterlimit:4;stroke-dasharray:none;stroke-opacity:1"
         d="M 75.141804,132.02221 H 192.6418"
         id="path1050"
         inkscape:connector-curvature="0" />
      <path
         style="opacity:1;fill:#f6f6f6;fill-opacity:0.09803922;stroke:none;stroke-width:1.5;stroke-miterlimit:4;stroke-dasharray:none;stroke-opacity:1;paint-order:markers fill stroke"
         d="m 78.1418,104.77221 h 111.5 c 1.662,0 2.98895,1.33804 3,3 v 23.5 H 75.141804 l -4e-6,-23.5 c 0,-1.662 1.338,-3 3,-3 z"
         id="rect1099"
         inkscape:connector-curvature="0"
         sodipodi:nodetypes="sssccss" />
    </g>
    <circle
       style="opacity:1;fill:#d9d5d2;fill-opacity:1;stroke:none;stroke-width:0.79375005;stroke-opacity:1;paint-order:markers fill stroke"
       id="path844"
       cx="115.62292"
       cy="155.97708"
       r="3.1749988" />
    <g
       transform="matrix(0.05593728,0,0,0.05593728,105.83333,79.985723)"
       id="g962">
      <g
         id="g952">
        <circle
           id="circle948"
           style="fill:#48b9c7"
           r="473"
           cy="474"
           cx="473" />
        <rect
           id="rect950"
           style="fill:#ffffff"
           ry="37.839996"
           rx="37.84"
           height="75.679993"
           width="496.64999"
           y="724.69"
           x="222.31007" />
      </g>
      <path
         inkscape:connector-curvature="0"
         id="path954"
         style="fill:#ffffff"
         d="m 536,357 c -24,51 -64,92 -120,112 l 48,125 c 9,23 17,47 10,69 -7,22 -39,29 -62,5 -44,-47 -192,-343 -203,-365 -11,-22 -23,-40 -23,-62 1,-33 52,-67 77,-84 25,-17 74,-40 117,-41 43,-1 61,9 86,25 38,25 65,64 75,109 10,45 7,80 -5,105 M 423,301 c -9,-31 -28,-61 -53,-81 -5,-4 -11,-9 -18,-11 -46,-15 -26,62 -19,82 7,20 26,62 47,83 5,5 10,9 16,10 6,1 18,-5 23,-13 5,-8 6,-14 6,-22 a 128,128 0 0 0 -2,-48 z" />
      <g
         id="g960">
        <path
           inkscape:connector-curvature="0"
           id="path956"
           style="fill:#ffffff"
           d="m 625,664 c -2,9 -7,17 -15,22 -8,5 -27,5 -38,-4 -11,-9 -13,-24 -10,-36 3,-12 13,-25 27,-29 29,-9 42,23 36,47 z" />
        <path
           inkscape:connector-curvature="0"
           id="path958"
           style="fill:#ffffff"
           d="m 607,573 c -18,-7 -12,-103 5,-220 5,-32 13,-48 22,-56 9,-8 36,-12 52,-9 a 90,90 0 0 1 49,24 c 12,11 13,23 9,38 -4,15 -18,47 -29,70 l -28,53 c -54,96 -65,106 -80,100 z" />
      </g>
    </g>
  </g>
</svg>
